<svg xmlns="http://www.w3.org/2000/svg" width="1280" height="720" viewBox="0 0 1280 720">
    <defs>
      <linearGradient id="bg" x1="0" x2="1" y1="0" y2="1">
        <stop offset="0" stop-color="#07111f"/>
        <stop offset="1" stop-color="#101827"/>
      </linearGradient>
      <filter id="shadow" x="-20%" y="-20%" width="140%" height="140%">
        <feDropShadow dx="0" dy="24" stdDeviation="22" flood-color="#000" flood-opacity=".35"/>
      </filter>
    </defs>
    <rect width="1280" height="720" fill="url(#bg)"/>
    <circle cx="160" cy="120" r="170" fill="#f97316" opacity=".18"/>
    <circle cx="1110" cy="90" r="130" fill="#f8fafc" opacity=".07"/>
    <rect x="80" y="74" width="1120" height="572" rx="10" fill="#0b1220" stroke="rgba(255,255,255,.16)" filter="url(#shadow)"/>
    <rect x="80" y="74" width="1120" height="58" rx="10" fill="#111827"/>
    <circle cx="114" cy="103" r="7" fill="#f87171"/><circle cx="140" cy="103" r="7" fill="#fbbf24"/><circle cx="166" cy="103" r="7" fill="#34d399"/>
    <text x="104" y="188" fill="#f97316" font-family="Inter, Arial" font-size="22" letter-spacing="3">LYN COMPANY</text>
    <text x="104" y="250" fill="#f8fafc" font-family="Inter, Arial" font-size="46" font-weight="700">Lyn Company</text>
    <foreignObject x="104" y="282" width="560" height="120"><p xmlns="http://www.w3.org/1999/xhtml" style="font:24px/1.45 Inter,Arial;color:#cbd5e1;margin:0">Backend services for a Saudi marketplace where clients compare provider offers and administrators manage financial operations.</p></foreignObject>
    <rect x="104" y="442" width="252" height="48" rx="8" fill="rgba(255,255,255,.06)" stroke="rgba(255,255,255,.12)"/><text x="124" y="473" fill="#e5e7eb" font-family="Inter,Arial" font-size="18">Marketplace backend</text><rect x="388" y="442" width="252" height="48" rx="8" fill="rgba(255,255,255,.06)" stroke="rgba(255,255,255,.12)"/><text x="408" y="473" fill="#e5e7eb" font-family="Inter,Arial" font-size="18">Provider offers</text><rect x="104" y="514" width="252" height="48" rx="8" fill="rgba(255,255,255,.06)" stroke="rgba(255,255,255,.12)"/><text x="124" y="545" fill="#e5e7eb" font-family="Inter,Arial" font-size="18">Admin workflows</text><rect x="388" y="514" width="252" height="48" rx="8" fill="rgba(255,255,255,.06)" stroke="rgba(255,255,255,.12)"/><text x="408" y="545" fill="#e5e7eb" font-family="Inter,Arial" font-size="18">Payment and transaction modules</text>
    <rect x="760" y="188" width="330" height="350" rx="12" fill="rgba(255,255,255,.05)" stroke="rgba(255,255,255,.14)"/>
    <text x="792" y="236" fill="#f8fafc" font-family="Inter,Arial" font-size="24" font-weight="700">Technologies</text>
    <rect x="792" y="266" width="242" height="28" rx="14" fill="#f97316" opacity=".16"/><text x="810" y="286" fill="#f8fafc" font-family="Inter,Arial" font-size="17">ASP.NET Core</text><rect x="792" y="308" width="242" height="28" rx="14" fill="#f97316" opacity=".16"/><text x="810" y="328" fill="#f8fafc" font-family="Inter,Arial" font-size="17">SQL Server</text><rect x="792" y="350" width="242" height="28" rx="14" fill="#f97316" opacity=".16"/><text x="810" y="370" fill="#f8fafc" font-family="Inter,Arial" font-size="17">Payments</text><rect x="792" y="392" width="242" height="28" rx="14" fill="#f97316" opacity=".16"/><text x="810" y="412" fill="#f8fafc" font-family="Inter,Arial" font-size="17">Administration</text>
  </svg>